<svg width="200" height="200" viewBox="0 0 200 200" fill="none" xmlns="http://www.w3.org/2000/svg">
<path d="M36.0093 50H29.8164V149.808H36.0093V50Z" fill="#00732F"/>
<path d="M50.9166 73.4028H44.7236V149.808H50.9166V73.4028Z" fill="#00732F"/>
<path d="M65.8248 86.4038H59.6318V149.808H65.8248V86.4038Z" fill="#00732F"/>
<path d="M80.733 95.803H74.54V149.808H80.733V95.803Z" fill="#00732F"/>
<path d="M21.0992 95.803H14.9062V149.808H21.0992V95.803Z" fill="#00732F"/>
<path d="M95.6412 102.803H89.4482V149.808H95.6412V102.803Z" fill="#00732F"/>
<path d="M110.549 107.806H104.356V149.808H110.549V107.806Z" fill="#00732F"/>
<path d="M125.459 111.603H119.266V149.808H125.459V111.603Z" fill="#00732F"/>
<path d="M134.173 149.806L140.366 149.806L140.366 114.418L134.173 114.418L134.173 149.806Z" fill="#00732F"/>
<path d="M149.082 149.809L155.275 149.809L155.275 115.969L149.082 115.969L149.082 149.809Z" fill="#00732F"/>
<path d="M178.899 149.807L185.092 149.807L185.092 117.348L178.899 117.348L178.899 149.807Z" fill="#00732F"/>
<path d="M193.807 149.808L200 149.808L200 117.752L193.807 117.752L193.807 149.808Z" fill="#00732F"/>
<path d="M163.991 149.806L170.184 149.806L170.184 116.874L163.991 116.874L163.991 149.806Z" fill="#00732F"/>
<path d="M0.000423431 149.809L6.19336 149.809L6.19336 115.969L0.000423432 115.969L0.000423431 149.809Z" fill="#00732F"/>
</svg>
