<svg width="298" height="191" viewBox="0 0 298 191" fill="none" xmlns="http://www.w3.org/2000/svg">
<path d="M53.8491 0H44.3892V152.46H53.8491V0Z" fill="#00732F"/>
<path d="M76.0478 35.7485H66.5879V152.46H76.0478V35.7485Z" fill="#00732F"/>
<path d="M98.2387 55.6082H88.7788V152.46H98.2387V55.6082Z" fill="#00732F"/>
<path d="M120.437 69.9658H110.977V152.46H120.437V69.9658Z" fill="#00732F"/>
<path d="M31.6577 69.9658H22.1978V152.46H31.6577V69.9658Z" fill="#00732F"/>
<path d="M142.628 80.658H133.168V152.46H142.628V80.658Z" fill="#00732F"/>
<path d="M164.826 88.3008H155.366V152.46H164.826V88.3008Z" fill="#00732F"/>
<path d="M187.024 94.1008H177.564V152.46H187.024V94.1008Z" fill="#00732F"/>
<path d="M199.757 152.457L209.217 152.457L209.217 98.4L199.757 98.4L199.757 152.457Z" fill="#00732F"/>
<path d="M221.95 152.461L231.41 152.461L231.41 100.77L221.95 100.77L221.95 152.461Z" fill="#00732F"/>
<path d="M266.341 152.459L275.801 152.459L275.801 102.876L266.341 102.876L266.341 152.459Z" fill="#00732F"/>
<path d="M288.54 152.46L298 152.46L298 103.494L288.54 103.494L288.54 152.46Z" fill="#00732F"/>
<path d="M244.149 152.458L253.609 152.458L253.609 102.152L244.149 102.152L244.149 152.458Z" fill="#00732F"/>
<path d="M0.000526428 152.461L9.46045 152.461L9.46045 100.77L0.00052643 100.77L0.000526428 152.461Z" fill="#00732F"/>
<path d="M0 189.833V167.593H17.5403V170.768H3.60003V177.576H17.0936V180.751H3.60003V189.826H0V189.833Z" fill="#F9F9F9"/>
<path d="M20.2402 189.833V167.593H37.7805V170.768H23.8403V177.119H37.3338V180.3H23.8403V186.651H37.7805V189.826H20.2402V189.833Z" fill="#F9F9F9"/>
<path d="M39.5806 182.316V182.117H43.1806V182.647C43.1806 185.285 44.731 186.611 49.5726 186.611C53.7902 186.611 55.2748 185.69 55.2748 183.608C55.2748 181.692 54.1515 180.97 51.3529 180.44L45.9463 179.551C42.2215 178.889 39.5871 177.172 39.5871 173.546C39.5871 170.344 42.2215 167.109 49.0799 167.109C55.5376 167.109 58.4741 170.344 58.4741 174.666V174.865H54.8741V174.434C54.8741 171.73 53.2646 170.377 48.6923 170.377C44.6784 170.377 43.1018 171.365 43.1018 173.347C43.1018 175.263 44.2186 175.886 46.82 176.449L52.1807 177.371C56.5887 178.166 58.7566 180.175 58.7566 183.409C58.7566 186.777 56.0303 189.879 49.5135 189.879C42.931 189.872 39.5806 186.969 39.5806 182.316Z" fill="#F9F9F9"/>
<path d="M68.361 189.832V170.775H59.8208V167.6H80.5078V170.775H71.961V189.832H68.361Z" fill="#F9F9F9"/>
<path d="M88.1548 189.833V167.593H100.203C104.315 167.593 106.792 169.549 106.792 173.069C106.792 175.694 105.38 177.649 102.102 178.047V178.279C105.767 178.71 107.561 180.771 107.561 183.688C107.561 187.506 105.084 189.826 100.656 189.826H88.1548V189.833ZM91.7548 176.668H99.7957C102.18 176.668 103.389 175.74 103.389 173.718C103.389 171.696 102.279 170.768 99.8943 170.768H91.7614V176.668H91.7548ZM91.7548 186.651H100.729C103.389 186.651 104.683 185.643 104.683 183.197C104.683 180.851 103.356 179.843 100.729 179.843H91.7548V186.651Z" fill="#F9F9F9"/>
<path d="M109.742 189.833V167.593H121.232C126.251 167.593 129.358 169.98 129.358 174.129C129.358 177.815 126.947 180.068 122.789 180.3V180.532C124.503 180.996 125.298 181.991 126.093 183.389L129.791 189.826H125.843L122.276 183.688C121.278 181.931 120.246 181.202 117.448 181.202H113.348V189.826H109.742V189.833ZM113.342 178.484H121.284C124.273 178.484 125.771 177.443 125.771 174.626C125.771 171.875 124.273 170.768 121.284 170.768H113.342V178.484Z" fill="#F9F9F9"/>
<path d="M131.782 189.833V167.593H135.382V189.833H131.782Z" fill="#F9F9F9"/>
<path d="M138.976 189.833V167.593H149.007C155.846 167.593 160.155 171.842 160.155 178.71C160.155 185.577 155.846 189.826 149.007 189.826H138.976V189.833ZM142.576 170.768V186.2H148.935C153.914 186.2 156.161 184.059 156.161 178.484C156.161 172.909 153.914 170.768 148.935 170.768H142.576Z" fill="#F9F9F9"/>
<path d="M162.205 178.299C162.205 171.1 166.738 166.42 173.61 166.42C179.712 166.42 183.956 169.728 183.956 175.064V175.766H179.91V175.601C180.048 172.445 177.867 170.735 173.334 170.735C168.085 170.735 165.575 173.201 165.575 178.696C165.575 184.191 168.052 186.624 173.169 186.624C178.385 186.624 180.435 185.179 180.356 181.46V181.215H172.263V178.491H183.956V189.839H180.81V184.848H180.586C179.686 188.222 176.953 190.184 172.749 190.184C166.409 190.177 162.205 185.491 162.205 178.299Z" fill="#F9F9F9"/>
<path d="M186.649 189.833V167.593H204.19V170.768H190.249V177.119H203.743V180.3H190.249V186.651H204.19V189.826H186.649V189.833Z" fill="#F9F9F9"/>
<path d="M212.737 189.833V167.593H230.277V170.768H216.337V177.119H229.83V180.3H216.337V186.651H230.277V189.826H212.737V189.833Z" fill="#F9F9F9"/>
<path d="M231.138 189.833L240.972 167.593H245.971L255.806 189.833H251.976L249.387 183.933H237.49L234.902 189.833H231.138ZM239.001 180.751H247.87L244.861 173.937L243.574 170.762H243.311L242.023 173.937L239.001 180.751Z" fill="#F9F9F9"/>
<path d="M256.364 182.316V182.117H259.964V182.647C259.964 185.285 261.514 186.611 266.356 186.611C270.573 186.611 272.058 185.69 272.058 183.608C272.058 181.692 270.935 180.97 268.136 180.44L262.73 179.551C259.005 178.889 256.37 177.172 256.37 173.546C256.37 170.344 259.005 167.109 265.863 167.109C272.321 167.109 275.257 170.344 275.257 174.666V174.865H271.657V174.434C271.657 171.73 270.048 170.377 265.476 170.377C261.462 170.377 259.885 171.365 259.885 173.347C259.885 175.263 261.002 175.886 263.603 176.449L268.964 177.371C273.372 178.166 275.54 180.175 275.54 183.409C275.54 186.777 272.814 189.879 266.297 189.879C259.721 189.872 256.364 186.969 256.364 182.316Z" fill="#F9F9F9"/>
<path d="M285.598 189.832V170.775H277.051V167.6H297.738V170.775H289.191V189.832H285.598Z" fill="#F9F9F9"/>
</svg>
