<svg width="152" height="96" viewBox="0 0 152 96" fill="none" xmlns="http://www.w3.org/2000/svg">
<path d="M27.3678 0.529785H22.6611V76.3836H27.3678V0.529785Z" fill="#00732F"/>
<path d="M38.6978 18.3159H33.9912V76.3837H38.6978V18.3159Z" fill="#00732F"/>
<path d="M50.0279 28.1968H45.3213V76.3838H50.0279V28.1968Z" fill="#00732F"/>
<path d="M61.358 35.3401H56.6514V76.3836H61.358V35.3401Z" fill="#00732F"/>
<path d="M16.0367 35.3401H11.3301V76.3836H16.0367V35.3401Z" fill="#00732F"/>
<path d="M72.6881 40.6597H67.9814V76.3835H72.6881V40.6597Z" fill="#00732F"/>
<path d="M84.0181 44.4624H79.3115V76.3837H84.0181V44.4624Z" fill="#00732F"/>
<path d="M95.3492 47.3481H90.6426V76.3837H95.3492V47.3481Z" fill="#00732F"/>
<path d="M101.972 76.3823L106.679 76.3823L106.679 49.4872L101.972 49.4872L101.972 76.3823Z" fill="#00732F"/>
<path d="M113.303 76.3843L118.01 76.3843L118.01 50.6665L113.303 50.6665L113.303 76.3843Z" fill="#00732F"/>
<path d="M135.963 76.3833L140.67 76.3833L140.67 51.7143L135.963 51.7143L135.963 76.3833Z" fill="#00732F"/>
<path d="M147.293 76.3835L152 76.3835L152 52.0213L147.293 52.0213L147.293 76.3835Z" fill="#00732F"/>
<path d="M124.633 76.3823L129.34 76.3823L129.34 51.3539L124.633 51.3539L124.633 76.3823Z" fill="#00732F"/>
<path d="M0.000407696 76.3843L4.70703 76.3843L4.70703 50.6665L0.000407696 50.6665L0.000407696 76.3843Z" fill="#00732F"/>
<path d="M0 94.9779V83.9131H8.72687V85.4928H1.79113V88.8799H8.50461V90.4596H1.79113V94.9746H0V94.9779Z" fill="black"/>
<path d="M10.0703 94.9779V83.9131H18.7972V85.4928H11.8614V88.6523H18.5749V90.2353H11.8614V93.3948H18.7972V94.9746H10.0703V94.9779Z" fill="black"/>
<path d="M19.6924 91.2377V91.1388H21.4835V91.4026C21.4835 92.7152 22.2549 93.3748 24.6638 93.3748C26.7621 93.3748 27.5008 92.9164 27.5008 91.8808C27.5008 90.9277 26.9419 90.5682 25.5495 90.3044L22.8595 89.8624C21.0063 89.5326 19.6957 88.6785 19.6957 86.8745C19.6957 85.2815 21.0063 83.6721 24.4186 83.6721C27.6315 83.6721 29.0926 85.2815 29.0926 87.4318V87.5308H27.3014V87.3164C27.3014 85.9708 26.5006 85.298 24.2258 85.298C22.2287 85.298 21.4443 85.7894 21.4443 86.7755C21.4443 87.7287 21.9999 88.0387 23.2943 88.319L25.9613 88.7774C28.1545 89.1732 29.2331 90.1725 29.2331 91.7819C29.2331 93.4573 27.8767 95.0007 24.6343 95.0007C21.3593 94.9974 19.6924 93.5529 19.6924 91.2377Z" fill="black"/>
<path d="M34.0117 94.9777V85.496H29.7627V83.9163H40.0552V85.496H35.8029V94.9777H34.0117Z" fill="black"/>
<path d="M43.8604 94.9779V83.9131H49.8548C51.9008 83.9131 53.1331 84.886 53.1331 86.6372C53.1331 87.9432 52.4303 88.9161 50.7994 89.114V89.2295C52.6232 89.4438 53.5155 90.4695 53.5155 91.9206C53.5155 93.8203 52.2832 94.9746 50.0803 94.9746H43.8604V94.9779ZM45.6515 88.428H49.6521C50.8386 88.428 51.44 87.9663 51.44 86.9604C51.44 85.9545 50.8876 85.4928 49.7011 85.4928H45.6547V88.428H45.6515ZM45.6515 93.3948H50.1162C51.44 93.3948 52.0839 92.8935 52.0839 91.6766C52.0839 90.5091 51.4236 90.0078 50.1162 90.0078H45.6515V93.3948Z" fill="black"/>
<path d="M54.6006 94.9779V83.9131H60.3172C62.8143 83.9131 64.3603 85.1004 64.3603 87.1649C64.3603 88.9986 63.1608 90.1199 61.0918 90.2353V90.3508C61.9449 90.5816 62.3404 91.0763 62.7359 91.7722L64.576 94.9746H62.6116L60.8369 91.9206C60.3401 91.0466 59.8269 90.6839 58.4345 90.6839H56.395V94.9746H54.6006V94.9779ZM56.3917 89.3317H60.3433C61.8305 89.3317 62.5757 88.8139 62.5757 87.4123C62.5757 86.0436 61.8305 85.4928 60.3433 85.4928H56.3917V89.3317Z" fill="black"/>
<path d="M65.5664 94.9779V83.9131H67.3575V94.9779H65.5664Z" fill="black"/>
<path d="M69.1445 94.9779V83.9131H74.1355C77.538 83.9131 79.6821 86.0271 79.6821 89.4438C79.6821 92.8605 77.538 94.9746 74.1355 94.9746H69.1445V94.9779ZM70.9357 85.4928V93.1706H74.0996C76.5771 93.1706 77.6949 92.1053 77.6949 89.3317C77.6949 86.5581 76.5771 85.4928 74.0996 85.4928H70.9357Z" fill="black"/>
<path d="M80.7021 89.2391C80.7021 85.6575 82.9574 83.3291 86.3762 83.3291C89.4127 83.3291 91.5241 84.9748 91.5241 87.6297V87.9793H89.5107V87.8968C89.5794 86.327 88.4942 85.4761 86.239 85.4761C83.6274 85.4761 82.3789 86.7029 82.3789 89.437C82.3789 92.171 83.6111 93.3814 86.1573 93.3814C88.7524 93.3814 89.7722 92.6624 89.733 90.8122V90.6902H85.7062V89.3347H91.5241V94.9809H89.9585V92.4975H89.8474C89.3996 94.1762 88.0399 95.1524 85.9481 95.1524C82.794 95.1491 80.7021 92.8174 80.7021 89.2391Z" fill="black"/>
<path d="M92.8643 94.9779V83.9131H101.591V85.4928H94.6554V88.6523H101.369V90.2353H94.6554V93.3948H101.591V94.9746H92.8643V94.9779Z" fill="black"/>
<path d="M105.844 94.9779V83.9131H114.571V85.4928H107.635V88.6523H114.348V90.2353H107.635V93.3948H114.571V94.9746H105.844V94.9779Z" fill="black"/>
<path d="M114.998 94.9779L119.891 83.9131H122.378L127.271 94.9779H125.366L124.078 92.0426H118.159L116.871 94.9779H114.998ZM118.91 90.4596H123.323L121.826 87.0693L121.185 85.4895H121.055L120.414 87.0693L118.91 90.4596Z" fill="black"/>
<path d="M127.55 91.2377V91.1388H129.341V91.4026C129.341 92.7152 130.112 93.3748 132.521 93.3748C134.62 93.3748 135.358 92.9164 135.358 91.8808C135.358 90.9277 134.799 90.5682 133.407 90.3044L130.717 89.8624C128.864 89.5326 127.553 88.6785 127.553 86.8745C127.553 85.2815 128.864 83.6721 132.276 83.6721C135.489 83.6721 136.95 85.2815 136.95 87.4318V87.5308H135.159V87.3164C135.159 85.9708 134.358 85.298 132.083 85.298C130.086 85.298 129.302 85.7894 129.302 86.7755C129.302 87.7287 129.857 88.0387 131.152 88.319L133.819 88.7774C136.012 89.1732 137.091 90.1725 137.091 91.7819C137.091 93.4573 135.734 95.0007 132.492 95.0007C129.22 94.9974 127.55 93.5529 127.55 91.2377Z" fill="black"/>
<path d="M142.094 94.9777V85.496H137.842V83.9163H148.134V85.496H143.882V94.9777H142.094Z" fill="black"/>
</svg>
