<svg width="800" height="800" viewBox="0 0 800 800" fill="none" xmlns="http://www.w3.org/2000/svg">
<path d="M400 50C492.826 50 581.85 86.8749 647.487 152.513C713.125 218.15 750 307.174 750 400C750 492.826 713.125 581.85 647.487 647.487C581.85 713.125 492.826 750 400 750C307.174 750 218.15 713.125 152.513 647.487C86.8749 581.85 50 492.826 50 400C50 307.174 86.8749 218.15 152.513 152.513C218.15 86.8749 307.174 50 400 50ZM356.4 469.05L278.65 391.25C275.863 388.463 272.554 386.252 268.912 384.743C265.27 383.235 261.367 382.458 257.425 382.458C253.483 382.458 249.58 383.235 245.938 384.743C242.296 386.252 238.987 388.463 236.2 391.25C230.571 396.879 227.408 404.514 227.408 412.475C227.408 420.436 230.571 428.071 236.2 433.7L335.2 532.7C337.979 535.501 341.286 537.725 344.929 539.242C348.572 540.759 352.479 541.54 356.425 541.54C360.371 541.54 364.278 540.759 367.921 539.242C371.564 537.725 374.871 535.501 377.65 532.7L582.65 327.65C585.475 324.874 587.722 321.567 589.261 317.918C590.801 314.27 591.604 310.352 591.622 306.392C591.64 302.432 590.875 298.508 589.369 294.845C587.863 291.182 585.647 287.854 582.848 285.052C580.05 282.25 576.724 280.03 573.063 278.52C569.402 277.01 565.478 276.239 561.518 276.253C557.558 276.267 553.64 277.064 549.99 278.6C546.339 280.136 543.029 282.379 540.25 285.2L356.4 469.05Z" fill="#00732F"/>
</svg>
